<svg width="6339" height="1913" viewBox="0 0 6339 1913" fill="none" xmlns="http://www.w3.org/2000/svg">
<g clip-path="url(#clip0_5487_13)">
<path d="M347.392 825.548V560.974C347.392 515.603 384.173 478.823 429.544 478.823H519.719V296H377.184C259.76 296 164.569 391.191 164.569 508.615V788.836C164.569 841.168 122.145 883.593 69.8129 883.593H0V1078.05H69.8129C122.145 1078.05 164.569 1120.47 164.569 1172.81V1453.03C164.569 1570.45 259.76 1665.64 377.184 1665.64H519.719V1482.82H429.544C384.173 1482.82 347.392 1446.04 347.392 1400.67V1136.09C347.392 1050.34 277.874 980.821 192.119 980.821C277.874 980.821 347.392 911.303 347.392 825.548Z" fill="white"/>
<path d="M653.754 862.184C686.486 829.452 686.486 776.382 653.754 743.65C621.022 710.918 567.952 710.918 535.22 743.65C502.488 776.382 502.488 829.452 535.22 862.184C567.952 894.916 621.022 894.916 653.754 862.184Z" fill="white"/>
<path d="M1288.5 825.548V560.974C1288.5 515.603 1251.72 478.823 1206.35 478.823H1116.18V296H1258.71C1376.13 296 1471.33 391.191 1471.33 508.615V788.836C1471.33 841.168 1513.75 883.593 1566.08 883.593H1635.89V1078.05H1566.08C1513.75 1078.05 1471.33 1120.47 1471.33 1172.81V1453.03C1471.33 1570.45 1376.13 1665.64 1258.71 1665.64H1116.18V1482.82H1206.35C1251.72 1482.82 1288.5 1446.04 1288.5 1400.67V1136.09C1288.5 1050.34 1358.02 980.821 1443.78 980.821C1358.02 980.821 1288.5 911.303 1288.5 825.548Z" fill="white"/>
<path d="M1100.68 862.184C1133.41 829.452 1133.41 776.382 1100.68 743.65C1067.94 710.918 1014.87 710.918 982.142 743.65C949.41 776.382 949.41 829.452 982.142 862.184C1014.87 894.916 1067.94 894.916 1100.68 862.184Z" fill="white"/>
<path d="M843.246 1431.31V1241.12C972.893 1171.59 986.014 1045.4 819.687 1045.4C653.361 1045.4 666.481 1171.59 796.128 1241.12V1431.31H631.59V1478.43H1007.78V1431.31H843.246Z" fill="white"/>
</g>
<path d="M2218 257V662H2742.7V833H1993V257H2218ZM2989.62 745.7V610.7H3605.22V745.7H2989.62ZM2788.02 833L3174.12 257H3424.32L3814.02 833H3566.52L3232.62 317.3H3366.72L3035.52 833H2788.02ZM3899.66 257H4124.66V833H3899.66V257ZM4743.79 549.5V499.1L5263.09 833H4928.29L4487.29 527L4894.09 257H5214.49L4743.79 549.5ZM4264.09 257H4489.09V833H4264.09V257ZM5505.05 745.7V610.7H6120.65V745.7H5505.05ZM5303.45 833L5689.55 257H5939.75L6329.45 833H6081.95L5748.05 317.3H5882.15L5550.95 833H5303.45Z" fill="white"/>
<path d="M2074 1081V1598.5H2398V1666H2002V1081H2074ZM2580.08 1513V1445.5H2860.88V1513H2580.08ZM2461.28 1666L2683.58 1081H2759.18L2983.28 1666H2905.88L2710.58 1136.8H2732.18L2536.88 1666H2461.28ZM3073.39 1666V1081H3303.79C3364.39 1081 3411.49 1094.8 3445.09 1122.4C3479.29 1150 3496.39 1188.4 3496.39 1237.6C3496.39 1268.2 3490.09 1293.1 3477.49 1312.3C3465.49 1331.5 3448.39 1345.9 3426.19 1355.5C3403.99 1365.1 3377.89 1371.4 3347.89 1374.4L3349.69 1369C3371.89 1370.2 3392.89 1373.2 3412.69 1378C3432.49 1382.2 3449.89 1389.1 3464.89 1398.7C3480.49 1408.3 3492.79 1421.5 3501.79 1438.3C3510.79 1455.1 3515.29 1476.7 3515.29 1503.1C3515.29 1538.5 3507.49 1567.9 3491.89 1591.3C3476.29 1614.7 3454.39 1632.7 3426.19 1645.3C3398.59 1657.3 3366.79 1664.2 3330.79 1666H3073.39ZM3145.39 1598.5H3312.79C3353.59 1598.5 3385.39 1591 3408.19 1576C3431.59 1560.4 3443.29 1536.1 3443.29 1503.1C3443.29 1476.7 3435.79 1456.9 3420.79 1443.7C3406.39 1430.5 3387.79 1421.8 3364.99 1417.6C3342.19 1412.8 3318.79 1410.4 3294.79 1410.4H3145.39V1598.5ZM3145.39 1342.9H3294.79C3335.59 1342.9 3367.39 1334.2 3390.19 1316.8C3413.59 1298.8 3425.29 1273.3 3425.29 1240.3C3425.29 1207.9 3413.59 1184.5 3390.19 1170.1C3367.39 1155.7 3338.59 1148.5 3303.79 1148.5H3145.39V1342.9ZM3588.38 1476.1H3653.18C3654.98 1501.3 3662.48 1523.8 3675.68 1543.6C3688.88 1563.4 3706.88 1579 3729.68 1590.4C3753.08 1601.8 3780.38 1607.5 3811.58 1607.5C3838.58 1607.5 3861.08 1603.6 3879.08 1595.8C3897.68 1587.4 3911.48 1576 3920.48 1561.6C3930.08 1547.2 3934.88 1530.4 3934.88 1511.2C3934.88 1491.4 3930.08 1475.5 3920.48 1463.5C3910.88 1451.5 3897.08 1441.3 3879.08 1432.9C3861.08 1424.5 3839.78 1416.4 3815.18 1408.6C3791.78 1401.4 3768.08 1393 3744.08 1383.4C3720.08 1373.8 3697.58 1362.1 3676.58 1348.3C3656.18 1334.5 3639.68 1318 3627.08 1298.8C3614.48 1279 3608.18 1255.3 3608.18 1227.7C3608.18 1200.7 3615.38 1175.5 3629.78 1152.1C3644.78 1128.1 3666.38 1108.9 3694.58 1094.5C3723.38 1079.5 3757.88 1072 3798.08 1072C3861.08 1072 3908.18 1089.1 3939.38 1123.3C3970.58 1157.5 3985.58 1202.8 3984.38 1259.2H3919.58C3918.38 1216.6 3906.38 1186 3883.58 1167.4C3860.78 1148.8 3831.08 1139.5 3794.48 1139.5C3763.88 1139.5 3737.18 1146.7 3714.38 1161.1C3691.58 1174.9 3680.18 1196.8 3680.18 1226.8C3680.18 1240 3682.58 1251.7 3687.38 1261.9C3692.78 1271.5 3701.18 1280.5 3712.58 1288.9C3724.58 1297.3 3740.48 1305.7 3760.28 1314.1C3780.68 1321.9 3805.58 1330.6 3834.98 1340.2C3854.18 1346.2 3873.68 1353.4 3893.48 1361.8C3913.88 1370.2 3932.48 1380.7 3949.28 1393.3C3966.68 1405.9 3980.48 1422.1 3990.68 1441.9C4001.48 1461.1 4006.88 1485.4 4006.88 1514.8C4006.88 1543 3999.98 1569.4 3986.18 1594C3972.98 1618 3951.98 1637.5 3923.18 1652.5C3894.98 1667.5 3858.38 1675 3813.38 1675C3774.98 1675 3741.98 1669.9 3714.38 1659.7C3687.38 1648.9 3665.18 1635.1 3647.78 1618.3C3630.38 1601.5 3616.88 1584.1 3607.28 1566.1C3598.28 1547.5 3592.28 1530.1 3589.28 1513.9C3586.28 1497.7 3585.98 1485.1 3588.38 1476.1Z" fill="#FF7A3B"/>
<defs>
<clipPath id="clip0_5487_13">
<rect width="1635.9" height="1369.64" fill="white" transform="translate(0 296)"/>
</clipPath>
</defs>
</svg>
